<svg width="464" height="464" viewBox="0 0 464 464" version="1.1" xmlns="http://www.w3.org/2000/svg" xmlns:xlink="http://www.w3.org/1999/xlink" xmlns:figma="http://www.figma.com/figma/ns">
<title>Checked</title>
<desc>Created using Figma</desc>
<g id="Canvas" transform="translate(305 233)" figma:type="canvas">
<g id="Checked" style="mix-blend-mode:normal;" figma:type="frame">
<g id="Vector" style="mix-blend-mode:normal;" figma:type="vector">
<use xlink:href="#path0_fill" transform="translate(-280 -208)" fill="#7AA4F0" style="mix-blend-mode:normal;"/>
<use xlink:href="#path1_stroke" transform="translate(-280 -208)" fill="#7AA4F0" style="mix-blend-mode:normal;"/>
</g>
<g id="Vector 2" style="mix-blend-mode:normal;" figma:type="vector">
<use xlink:href="#path2_stroke" transform="translate(-186.5 -84)" fill="#F2F2F2" style="mix-blend-mode:normal;"/>
</g>
</g>
</g>
<defs>
<path id="path0_fill" d="M 313.241 0L 100 0C 44.7715 0 0 44.7715 0 100L 0 314C 0 369.228 44.7715 414 100 414L 313.758 414C 369.081 414 413.892 369.081 413.758 313.758L 413.241 99.7585C 413.108 44.6244 368.375 0 313.241 0Z"/>
<path id="path1_stroke" d="M 413.241 99.7585L 438.241 99.6981L 413.241 99.7585ZM 413.758 313.758L 388.758 313.819L 413.758 313.758ZM 100 25L 313.241 25L 313.241 -25L 100 -25L 100 25ZM 388.241 99.8188L 388.758 313.819L 438.758 313.698L 438.241 99.6981L 388.241 99.8188ZM 313.758 389L 100 389L 100 439L 313.758 439L 313.758 389ZM 25 314L 25 100L -25 100L -25 314L 25 314ZM 100 -25C 30.9644 -25 -25 30.9644 -25 100L 25 100C 25 58.5786 58.5786 25 100 25L 100 -25ZM 313.241 25C 354.592 25 388.141 58.4683 388.241 99.8188L 438.241 99.6981C 438.074 30.7806 382.159 -25 313.241 -25L 313.241 25ZM 388.758 313.819C 388.858 355.311 355.25 389 313.758 389L 313.758 439C 382.912 439 438.925 382.851 438.758 313.698L 388.758 313.819ZM 100 389C 58.5786 389 25 355.421 25 314L -25 314C -25 383.036 30.9644 439 100 439L 100 389Z"/>
<path id="path2_stroke" d="M 17.1504 92.2084C 7.10446 82.7365 -8.71782 83.2018 -18.1897 93.2477C -27.6616 103.294 -27.1963 119.116 -17.1504 128.588L 17.1504 92.2084ZM 58.9715 166L 41.8212 184.19L 59.3768 200.742L 76.5415 183.785L 58.9715 166ZM 244.57 17.7847C 254.392 8.08105 254.488 -7.74778 244.785 -17.57C 235.081 -27.3922 219.252 -27.4883 209.43 -17.7847L 244.57 17.7847ZM -17.1504 128.588L 41.8212 184.19L 76.1219 147.81L 17.1504 92.2084L -17.1504 128.588ZM 76.5415 183.785L 244.57 17.7847L 209.43 -17.7847L 41.4015 148.215L 76.5415 183.785Z"/>
</defs>
</svg>
