<svg width="426" height="360" viewBox="0 0 426 360" version="1.1" xmlns="http://www.w3.org/2000/svg" xmlns:xlink="http://www.w3.org/1999/xlink" xmlns:figma="http://www.figma.com/figma/ns">
<title>Dog</title>
<desc>Created using Figma</desc>
<g id="Canvas" transform="translate(161 302)" figma:type="canvas">
<g id="Dog" style="mix-blend-mode:normal;" figma:type="symbol">
<g id="Dog" style="mix-blend-mode:normal;" figma:type="vector">
<use xlink:href="#path0_fill" transform="translate(-151 -292)" fill="#7AA4F0" style="mix-blend-mode:normal;"/>
<use xlink:href="#path1_fill" transform="translate(-151 -292)" fill="#7AA4F0" style="mix-blend-mode:normal;"/>
<use xlink:href="#path2_fill" transform="translate(-151 -292)" fill="#7AA4F0" style="mix-blend-mode:normal;"/>
<use xlink:href="#path3_fill" transform="translate(-151 -292)" fill="#7AA4F0" style="mix-blend-mode:normal;"/>
<use xlink:href="#path4_fill" transform="translate(-151 -292)" fill="#7AA4F0" style="mix-blend-mode:normal;"/>
<use xlink:href="#path5_stroke" transform="translate(-151 -292)" fill="#363843" style="mix-blend-mode:normal;"/>
</g>
</g>
</g>
<defs>
<path id="path0_fill" d="M 200 0L 110 0L 50.1894 133L 110 191L 123 191L 207 191L 254.433 142L 200 0Z"/>
<path id="path1_fill" d="M 0 84L 34 169L 50.1894 133L 110 0L 0 84Z"/>
<path id="path2_fill" d="M 312 84L 200 0L 254.433 142L 269 180L 279.75 156L 312 84Z"/>
<path id="path3_fill" d="M 269 180L 254.433 142L 207 191L 123 191L 123 340L 305 340L 373.783 251.779L 279.75 156L 269 180Z"/>
<path id="path4_fill" d="M 305 340L 406 285L 397 222L 374 252L 373.783 251.779L 305 340Z"/>
<path id="path5_stroke" d="M 200 0L 206 -8C 204.269 -9.29822 202.164 -10 200 -10L 200 0ZM 269 180L 259.663 183.579C 261.109 187.353 264.685 189.885 268.725 189.996C 272.765 190.107 276.474 187.776 278.126 184.088L 269 180ZM 312 84L 321.126 88.0878C 323.037 83.823 321.738 78.8039 318 76L 312 84ZM 110 0L 110 -10C 107.807 -10 105.674 -9.27887 103.931 -7.94768L 110 0ZM 34 169L 24.7152 172.714C 26.2054 176.439 29.778 178.913 33.7895 178.998C 37.801 179.082 41.4746 176.761 43.1202 173.101L 34 169ZM 0 84L -6.06914 76.0523C -9.63718 78.777 -10.9521 83.5456 -9.28477 87.7139L 0 84ZM 110 191L 103.038 198.179C 104.904 199.988 107.401 201 110 201L 110 191ZM 207 191L 207 201C 209.708 201 212.301 199.901 214.185 197.955L 207 191ZM 254.433 142L 263.771 138.421L 254.433 142ZM 123 340L 113 340C 113 345.523 117.477 350 123 350L 123 340ZM 305 340L 305 350C 306.671 350 308.315 349.581 309.782 348.782L 305 340ZM 406 285L 410.782 293.782C 414.45 291.785 416.49 287.72 415.9 283.586L 406 285ZM 397 222L 406.9 220.586C 406.332 216.616 403.448 213.368 399.572 212.337C 395.697 211.305 391.58 212.688 389.114 215.851L 397 222ZM 374 252L 366.864 259.006C 368.894 261.073 371.719 262.158 374.61 261.981C 377.501 261.805 380.174 260.383 381.936 258.084L 374 252ZM 318 76L 206 -8L 194 8L 306 92L 318 76ZM 43.2848 165.286L 9.28477 80.2861L -9.28477 87.7139L 24.7152 172.714L 43.2848 165.286ZM 6.06914 91.9477L 116.069 7.94768L 103.931 -7.94768L -6.06914 76.0523L 6.06914 91.9477ZM 110 10L 200 10L 200 -10L 110 -10L 110 10ZM 100.88 -4.1014L 41.0691 128.899L 59.3096 137.101L 119.12 4.1014L 100.88 -4.1014ZM 41.0691 128.899L 24.8798 164.899L 43.1202 173.101L 59.3096 137.101L 41.0691 128.899ZM 43.2278 140.179L 103.038 198.179L 116.962 183.821L 57.1509 125.821L 43.2278 140.179ZM 190.663 3.57936L 245.096 145.579L 263.771 138.421L 209.337 -3.57936L 190.663 3.57936ZM 245.096 145.579L 259.663 183.579L 278.337 176.421L 263.771 138.421L 245.096 145.579ZM 214.185 197.955L 261.618 148.955L 247.248 135.045L 199.815 184.045L 214.185 197.955ZM 110 201L 123 201L 123 181L 110 181L 110 201ZM 123 201L 207 201L 207 181L 123 181L 123 201ZM 113 191L 113 340L 133 340L 133 191L 113 191ZM 123 350L 305 350L 305 330L 123 330L 123 350ZM 309.782 348.782L 410.782 293.782L 401.218 276.218L 300.218 331.218L 309.782 348.782ZM 415.9 283.586L 406.9 220.586L 387.1 223.414L 396.1 286.414L 415.9 283.586ZM 389.064 215.916L 366.064 245.916L 381.936 258.084L 404.936 228.084L 389.064 215.916ZM 278.126 184.088L 288.876 160.088L 270.624 151.912L 259.874 175.912L 278.126 184.088ZM 288.876 160.088L 321.126 88.0878L 302.874 79.9122L 270.624 151.912L 288.876 160.088ZM 312.886 346.149L 381.669 257.927L 365.896 245.63L 297.114 333.851L 312.886 346.149ZM 380.919 244.773L 286.886 148.994L 272.614 163.006L 366.647 258.784L 380.919 244.773ZM 381.669 257.927L 404.886 228.149L 389.114 215.851L 365.896 245.63L 381.669 257.927ZM 381.136 244.994L 380.918 244.773L 366.647 258.785L 366.864 259.006L 381.136 244.994Z"/>
</defs>
</svg>
