<svg width="464" height="464" viewBox="0 0 464 464" version="1.1" xmlns="http://www.w3.org/2000/svg" xmlns:xlink="http://www.w3.org/1999/xlink" xmlns:figma="http://www.figma.com/figma/ns">
<title>Unchecked</title>
<desc>Created using Figma</desc>
<g id="Canvas" transform="translate(-214 233)" figma:type="canvas">
<g id="Unchecked" style="mix-blend-mode:normal;" figma:type="vector">
<use xlink:href="#path0_stroke" transform="translate(239 -208)" fill="#7AA4F0" style="mix-blend-mode:normal;"/>
</g>
</g>
<defs>
<path id="path0_stroke" d="M 100 25L 314 25L 314 -25L 100 -25L 100 25ZM 389 100L 389 314L 439 314L 439 100L 389 100ZM 314 389L 100 389L 100 439L 314 439L 314 389ZM 25 314L 25 100L -25 100L -25 314L 25 314ZM 100 -25C 30.9644 -25 -25 30.9644 -25 100L 25 100C 25 58.5786 58.5786 25 100 25L 100 -25ZM 314 25C 355.421 25 389 58.5786 389 100L 439 100C 439 30.9644 383.036 -25 314 -25L 314 25ZM 389 314C 389 355.421 355.421 389 314 389L 314 439C 383.036 439 439 383.036 439 314L 389 314ZM 100 389C 58.5786 389 25 355.421 25 314L -25 314C -25 383.036 30.9644 439 100 439L 100 389Z"/>
</defs>
</svg>
